/* XPM */
static char *_afc43832ab2486f91d7ae35c82f9edaZ3oumRuTLMQK2R73[] = {
/* columns rows colors chars-per-pixel */
"52 50 7 1 ",
"  c black",
". c #141132",
"X c #6B2FAC",
"o c #CA3E93",
"O c #808080",
"+ c gray80",
"@ c #F7E2C5",
/* pixels */
"                                                    ",
"                                                    ",
"  OOOOOOO..+++....OOOO...O++....++OO....O....+++++OO",
"  OOOOOO.o@.+.@@@@..O.@@@.+.@@@@.+O.@@@@.@@@@.++++OO",
"  OOOO..@oo@.@oooooX.XXooX.@ooooX..@oooo.oooo..+@+OO",
"  OOO.@@oXoX.XXoXXXoXXooXoXoXoXoX.oXXoooXoooXo.+@+OO",
"  O@O.oXoXXoXXoXooooXooXoooXXXoXXXXoXXXXXXXXoX.+@+OO",
"  O@O.XXX.oXoXooooooooooooXooooXoXoXoXoXo..XXX.+++OO",
"  OOO....@oXoooooXoooooooooooooooooXooooXo@...o.++OO",
"  OO.oo.@oooXoooXXoooooXoooooXooooooXoooooo@.oo.++OO",
"  ++.o.@ooXoooooXXoXoooooooooXoXooooooooXooo@.X.O@++",
"  @+.X.XXoXooooooooooooooooooooooooooooooXoXX...O@++",
"  @+ X XXXXoooXooooooooooooXoooooooooooooXXoo.o.OO++",
"  ++ X XXXoXoooooXoooooooooooXooooooooooXXooX o O@++",
"  ++ X  XXXooooooXoooooooooooXoooooooooooXXX  X O@++",
"  +++ @@  XooooooXooooXooooooXooooXXooooooX @@ OO@++",
"  ++.@oo@XXoooooXXXoooXooooooXXoooXooooooXo@oo@.OO++",
"  ++.oooooXoooooXoXooooooooooooooXXoooooooooooo.OO++",
"  @O.ooooooooooooooooooooooooooooooXoooooXooooo ++OO",
"  @O. oXXXoXoooooooooooooooooooooooooooooXXXX  .+@OO",
"  @O..  XXXoooooXooooooooooooooooooXooooX. X oo.+@OO",
"  @O.oo  @XoooooXXoooooooooooooooooXXoooXX@  oX.+@OO",
"  @O.Xoo@XooooooXXoooooooooooooooooXXoooooo@@ X.+@OO",
"  OO.XX.oXXooooooooooooooooooooooooooooooXooo@X.+@OO",
"  @O.. XXoXooooooooooooooooooooooooooXooooXoo..X+@OO",
"  OO.@@ XXoooooooooooooooooooooooooooooooXoX.@@.++OO",
"  ++ oo@ oooXooooooooooooooooooooooooooooooX oo OO++",
"  ++ ooo XoXXXoooooooooooooooooooooooooXooXX oo O@++",
"  ++ ooo XoXoXoooooooooooooooooooooooooXoXo @oo O@++",
"  @+.Xoo XXoooXooooooooooooooooooooooooooXX ooX.O@++",
"  @+ XX.oXXooooooooooooooooooooooooooooooXXX XX O@++",
"  ++  @@XooooooXXoooooooooooooooooXXooooooX.@@  O@++",
"  ++ @oo@XoooooXooooooooooooooooooXooooooXo@oo@.OO++",
"  @+ oooXooooooXooooooooooooooooooXooooooXooooo OO++",
"  @O XooXooXoooooooooXoooooXoooooooooXooooooooX +@OO",
"  @O XXXooooooooXooooXXXoooXXoXooooooXoooXoooXX ++OO",
"  @OO.oXXXooooooooooooooooooXoXooooooooooXXXX  ++@OO",
"  OOO....XoXoooXooXoooXoooXoooooooXooXoXo... @@.+@OO",
"  @OO....ooXXooXXoXXoXXooXXXoooXoXXXXXXXXX@@ooo.+@OO",
"  OO..oo..XoXXXXoXXoXXXXXX.XoooXXX......XXXXooX.+@OO",
"  OO..ooo.....XXXXooooXXX...XXXX..@@@X.....XXXX.+@OO",
"  @O..oXX..@@..X....ooX..@@@.X....ooXX..@@..XX..++OO",
"  @+.o...@@XXXo..o@@..@@ooXXX.X@@@..@ooooXXo.Xo.OO++",
"  @+ oo XXXXXXX  XXXo@.XXoXXX..XXXoo.XXXoXXX. X O@++",
"  ++ X   XXXXXX   XXX  XXXXXX...XXX   XXXXXX    O@++",
"  @++ oo  XXXX       oo.XXXXX      oo  XXXX    OO@++",
"  @+. ooo      @@   ooo      @@   oooo      @@ .O@++",
"  +++ XXooo O@@oo@@+XXXoooO @oo@@OXXXoooo @@oo OOO++",
"  ++++++++OOOOOOOO++++++++OOOOOOOO++++++++OOOOOOOO++",
"  +++@@@@@@@O@@@@O++@@@++@@@@OO@@@+@@@@@@+@@@@@OOO++"
};
