/* XPM */
static char * floor2_xpm[] = {
"80 80 8 1",
" 	c None",
".	c #141132",
"+	c #808080",
"@	c #CCCCCC",
"#	c #F7E2C5",
"$	c #CA3E93",
"%	c #6B2FAC",
"&	c #000000",
"                                                           ......+.......@@     ",
"                                        @@.#######..@+++.########.#######..     ",
"       .###$$$#..###$$$$$$$$%%.%%%$$$$%%..#$$$$$$$%%....#$$$$$$$$.$$$$$$$...    ",
"       .###$$$#..###$$$$$$$$%%.%%%$$$$%%..#$$$$$$$%%....#$$$$$$$$.$$$$$$$...    ",
"    .###$$$%$$%..%%%%$$%%%%%$$%%%$$$$%$$%%$%%%$%%$%%.$$$%%%$$$$$$%$$$$$%%$$.    ",
"    .###$$$%$$%..%%%%$$%%%%%$$%%%$$$$%$$%%$%%%$%%$%%.$$$%%%$$$$$$%$$$$$%%$$.    ",
"    .$$%$$$%%%$%%%%%$%%$$$$$$$%$$$%%%$$$$$%%%%%$$%%%%%%%$%%%%%%%%%%%%%%$$%%.    ",
"  ++.%%%%%%.$$%$$%%%$$$$$$$$$$$$$$$$$$$$%%$$$$$$$%$$%$$$%$$%$$%%%$...%%%%%%.    ",
"  ++.%%%%%%.$$%$$%%%$$$$$$$$$$$$$$$$$$$$%%$$$$$$$%$$%$$$%$$%$$%%%$...%%%%%%.    ",
"  ++.%%%%%%.$$%$$%%%$$$$$$$$$$$$$$$$$$$$%%$$$$$$$%$$%$$$%$$%$$%%%$...%%%%%%.    ",
"  ++.......#$$%$$$$$$$$$%%$$$$$$$$$$$$$$$$$$$$$$$$$$$$$$%$$$$$$$$%$$#......$    ",
"  ..$$$.###$$$$%%$$$$$$%%%$$$$$$$$%%%$$$$$$$$$%$$$$$$$$$$%%$$$$$$$$$$##..$$$    ",
"  ..$$$.###$$$$%%$$$$$$%%%$$$$$$$$%%%$$$$$$$$$%$$$$$$$$$$%%$$$$$$$$$$##..$$$    ",
"  ..$..#$$$$%%$$$$$$$$$%%%$$%%$$$$$$$$$$$$$$$$%$$%$$$$$$$$$$$$$$$%$$$$$##..%..  ",
"  ..$..#$$$$%%$$$$$$$$$%%%$$%%$$$$$$$$$$$$$$$$%$$%$$$$$$$$$$$$$$$%$$$$$##..%..  ",
"  ..%..%%%%$%%$$$$$$$$$$$$$$$$$$$$$$$$$$$$$$$$$$$$$$$$$$$$$$$$$$$$%%$%%%%.....  ",
"  &&%&&%%%%%%%$$$$$$%$$$$$$$$$$$$$$$$$$$$$%$$$$$$$$$$$$$$$$$$$$$$$%%%$$$$..$..  ",
"  &&%&&%%%%%%%$$$$$$%$$$$$$$$$$$$$$$$$$$$$%$$$$$$$$$$$$$$$$$$$$$$$%%%$$$$..$..  ",
"  &&%&&%%%%%%%$$$$$$%$$$$$$$$$$$$$$$$$$$$$%$$$$$$$$$$$$$$$$$$$$$$$%%%$$$$..$..  ",
"  &&%&&%%%%%$$%$$$$$$$$$%%$$$$$$$$$$$$$$$$$$$$%$$$$$$$$$$$$$$$$$$%%%$$$%%&&$&&  ",
" @&&%&&&%%%%%%$$$$$$$$$$%%$$$$$$$$$$$$$$$$$$$$%$$$$$$$$$$$$$$$$$$$%%%%%&&&&%&&  ",
" @&&%&&&%%%%%%$$$$$$$$$$%%$$$$$$$$$$$$$$$$$$$$%$$$$$$$$$$$$$$$$$$$%%%%%&&&&%&&  ",
" @@@&###&&&&%%$$$$$$$$$$%%$$$$$$$%$$$$$$$$$$$$%$$$$$$%%%%$$$$$$$$$$$%&&####&++  ",
" @@@&###&&&&%%$$$$$$$$$$%%$$$$$$$%$$$$$$$$$$$$%$$$$$$%%%%$$$$$$$$$$$%&&####&++  ",
" @..#$$$###%%%$$$$$$$$$%%%%%$$$$$%$$$$$$$$$$$$%%%$$$$%%%$$$$$$$$$$%%$##$$$$#..  ",
" @..$$$$$$$$%%$$$$$$$$$%$$%%$$$$$$$$$$$$$$$$$$$$$$$$%%%%$$$$$$$$$$$$$$$$$$$$..  ",
" @..$$$$$$$$%%$$$$$$$$$%$$%%$$$$$$$$$$$$$$$$$$$$$$$$%%%%$$$$$$$$$$$$$$$$$$$$..  ",
" @..$$$$$$$$%%$$$$$$$$$%$$%%$$$$$$$$$$$$$$$$$$$$$$$$%%%%$$$$$$$$$$$$$$$$$$$$..  ",
"  ..$$$$$$$$$$$$$$$$$$$$$$$$$$$$$$$$$$$$$$$$$$$$$$$$$$$$%$$$$$$$$$%%$$$$$$$$&&  ",
" +..&$$%%%%%$$%$$$$$$$$$$$$$$$$$$$$$$$$$$$$$$$$$$$$$$$$$$$$$$$$$$$%%%%%%%&&&..  ",
" +..&$$%%%%%$$%$$$$$$$$$$$$$$$$$$$$$$$$$$$$$$$$$$$$$$$$$$$$$$$$$$$%%%%%%%&&&..  ",
"  ...&&&%%%%%%$$$$$$$$$%$$$$$$$$$$$$$$$$$$$$$$$$$$$$$$$$%$$$$$$$$%..&%%&&$$$..  ",
"  ...&&&%%%%%%$$$$$$$$$%$$$$$$$$$$$$$$$$$$$$$$$$$$$$$$$$%$$$$$$$$%..&%%&&$$$..  ",
"  ..$$$&&&&#%%$$$$$$$$$%%%$$$$$$$$$$$$$$$$$$$$$$$$$$$$$$%%%$$$$$$%%%#&&&&$$%..  ",
"  ..%$$$###%$$$$$$$$$$$%%%$$$$$$$$$$$$$$$$$$$$$$$$$$$$$$%%%$$$$$$$$$$####&&%..  ",
"  ..%$$$###%$$$$$$$$$$$%%%$$$$$$$$$$$$$$$$$$$$$$$$$$$$$$%%%$$$$$$$$$$####&&%..  ",
"  ..%$$$###%$$$$$$$$$$$%%%$$$$$$$$$$$$$$$$$$$$$$$$$$$$$$%%%$$$$$$$$$$####&&%..  ",
"  .. %%.$$$%%%$$$$$$$$$$$$$$$$$$$$$$$$$$$$$$$$$$$$$$$$$$$$$$$$$$$$%%$$$$$##%    ",
"  .. &&%%%%$%%$$$$$$$$$$$$$$$$$$$$$$$$$$$$$$$$$$$$$$$$$$$$$%$$$$$$$$%$$$$...%%  ",
"  .. &&%%%%$%%$$$$$$$$$$$$$$$$$$$$$$$$$$$$$$$$$$$$$$$$$$$$$%$$$$$$$$%$$$$...%%  ",
"  .. ##&%%%%$$$$$$$$$$$$$$$$$$$$$$$$$$$$$$$$$$$$$$$$$$$$$$$$$$$$$$%%$%%..###    ",
"  .. ##&%%%%$$$$$$$$$$$$$$$$$$$$$$$$$$$$$$$$$$$$$$$$$$$$$$$$$$$$$$%%$%%..###    ",
"  && $$#&&&$$$$%%$$$$$$$$$$$$$$$$$$$$$$$$$$$$$$$$$$$$$$$$$$$$$$$$$$$$%%&&$$$    ",
"  && $$$&&&%$$%%%%%%$$$$$$$$$$$$$$$$$$$$$$$$$$$$$$$$$$$$$$$$$$%%%$$$%%%&&$$$    ",
"  && $$$&&&%$$%%%%%%$$$$$$$$$$$$$$$$$$$$$$$$$$$$$$$$$$$$$$$$$$%%%$$$%%%&&$$$    ",
"  && $$$&&&%$$%%%%%%$$$$$$$$$$$$$$$$$$$$$$$$$$$$$$$$$$$$$$$$$$%%%$$$%%%&&$$$    ",
"  && $$$&&&%$$%$$%%%$$$$$$$$$$$$$$$$$$$$$$$$$$$$$$$$$$$$$$$$$$%%%$%%$&&##$$$    ",
"  .. $$$&&&%%%$$$$$$%$$$$$$$$$$$$$$$$$$$$$$$$$$$$$$$$$$$$$$$$$$$$$%%%&&$$$$%    ",
"  .. $$$&&&%%%$$$$$$%$$$$$$$$$$$$$$$$$$$$$$$$$$$$$$$$$$$$$$$$$$$$$%%%&&$$$$%    ",
"  && %%.$$$%%%$$$$$$$$$$$$$$$$$$$$$$$$$$$$$$$$$$$$$$$$$$$$$$$$$$$$%%%%%&&%%%    ",
"  && %%.$$$%%%$$$$$$$$$$$$$$$$$$$$$$$$$$$$$$$$$$$$$$$$$$$$$$$$$$$$%%%%%&&%%%    ",
"  &&&###%%%$$$$$$$$$$%%%$$$$$$$$$$$$$$$$$$$$$$$$$$$$$%%%%$$$$$$$$$$$%..####&    ",
"  &&#$$$###%$$$$$$$$$%%$$$$$$$$$$$$$$$$$$$$$$$$$$$$$$%%%$$$$$$$$$$%%$##$$$$#    ",
"  &&#$$$###%$$$$$$$$$%%$$$$$$$$$$$$$$$$$$$$$$$$$$$$$$%%%$$$$$$$$$$%%$##$$$$#    ",
"  &&#$$$###%$$$$$$$$$%%$$$$$$$$$$$$$$$$$$$$$$$$$$$$$$%%%$$$$$$$$$$%%$##$$$$#    ",
"  &&$$$$%%%$$$$$$$$$$%%$$$$$$$$$$$$$$$$$$$$$$$$$$$$$$%%%$$$$$$$$$$%%$$$$$$$$    ",
" +&&%$$$%%%$$$%$$$$$$$$$$$$$$$$%%$$$$$$$$$%$$$$$$$$$$$$$$$$%$$$$$$$$$$$$$$$%    ",
" +&&%$$$%%%$$$%$$$$$$$$$$$$$$$$%%$$$$$$$$$%$$$$$$$$$$$$$$$$%$$$$$$$$$$$$$$$%    ",
" +&&%%%%$$$$$$$$$$$$$$$%$$$$$$$%%%%%%$$$$$%%%%$%%$$$$$$$$$$%$$$$$$%%$$$$$%%%    ",
" +&&%%%%$$$$$$$$$$$$$$$%$$$$$$$%%%%%%$$$$$%%%%$%%$$$$$$$$$$%$$$$$$%%$$$$$%%%    ",
" +++.$$%%%%%$$$$$$$$$$$$$$$$$$$$$$$$$$$$$$$%%%$%%$$$$$$$$$$$$$$$$$%%%%%%%&&&    ",
" +++.......%$$%$$$$$$%%$$$%%$$$$$%$$$$$$%%$$$$$$$$$$$%%%$$$%$$%%%$.....&&###    ",
" +++.......%$$%$$$$$$%%$$$%%$$$$$%$$$$$$%%$$$$$$$$$$$%%%$$$%$$%%%$.....&&###    ",
" +++.......%$$%$$$$$$%%$$$%%$$$$$%$$$$$$%%$$$$$$$$$$$%%%$$$%$$%%%$.....&&###    ",
" +++.......$$$%%%$$$$%%%$$%%%%$%%%$$$$%%%%%$$$$$$%$$%%%%%%%%%%%%%%%%###$$$$$..  ",
" +...$$$....%%$%%%%%%%%$%%%%$$%%%%%%%%%%..%$$$$$$%%%%............%%%%%%$$$$%..  ",
" +...$$$....%%$%%%%%%%%$%%%%$$%%%%%%%%%%..%$$$$$$%%%%............%%%%%%$$$$%..  ",
" +...$$$$$$.........%%%%%%$$$$$$$%%%%%.....%%%%%%%...######%.........%%%%%%%..  ",
" +...$$$$$$.........%%%%%%$$$$$$$%%%%%.....%%%%%%%...######%.........%%%%%%%..  ",
" +...$$%%%%...###....%%.......$$$%....#####...%......$$$$%%%.....###...%%%%...  ",
" @..$......###%%%%%%$...$$####...####$$$%%%%%%.%%####....##$$$$$$$%%%$$..%%$..  ",
" @..$......###%%%%%%$...$$####...####$$$%%%%%%.%%####....##$$$$$$$%%%$$..%%$..  ",
" @..$......###%%%%%%$...$$####...####$$$%%%%%%.%%####....##$$$$$$$%%%$$..%%$..  ",
"  &&$$$&%%%%%%%%%%%%%&&&%%%%%%$##.%%%%$$%%%%%%...%%%%$$$$..%%%%%%$%%%%%..&&%&&  ",
"  &&%&&&&&&%%%%%%%%%%&&&&&%%%%%&&&%%%%%%%%%%%%....%%%%%%&&&&%%%%%%%%%%%&&&&&&&  ",
"  &&%&&&&&&%%%%%%%%%%&&&&&%%%%%&&&%%%%%%%%%%%%....%%%%%%&&&&%%%%%%%%%%%&&&&&&&  ",
"    &$$$&&&&%%%%%%%%&&&&&&&&&&&$$$...%%%%%%%%%&&&&&&&&&&$$$&&&%%%%%%%&&&&&&&    ",
"    &$$$&&&&%%%%%%%%&&&&&&&&&&&$$$...%%%%%%%%%&&&&&&&&&&$$$&&&%%%%%%%&&&&&&&    ",
"    &$$$$$$&&&&&&&&&&###&&&&&&$$$$&&&&&&&&&&&&###&&&&$$$$$$$&&&&&&&&&&&####&    ",
"     %%%$$$$$$&++####$$$####@@%%%%$$$$$$++&###$$$###+%%%%%%$$$$$$$&&###$$$$     "};
