/* XPM */
static char *_1e597d4c5bf4e0dfaa1525c79243b3fyNdBzaThiLkF9fgu[] = {
/* columns rows colors chars-per-pixel */
"128 48 6 1 ",
"  c None",
". c black",
"X c #0B0630",
"o c #6B1FB1",
"O c #CC3495",
"+ c #F8E3C4",
/* pixels */
"       XX   XXXX    XXX   XXXX    XXXX XXXX                     XOooOooOOOOOOoOOOOooOOOOOooOOO+X                ooooooooooooooo+",
"      XO+X X++++XX X+++X X++++X  X++++X++++X                    OoooooOOOOOOOOOOOOoOoOOOOOoOOOOX                oooooooooooooooo",
"    XX+OO+X+OOOOOoXooOOoX+OOOOoXX+OOOOXOOOOXX +                 oOOoOOOOoOOOOOOOOOOOOOOOoOOoOOOO                oooooooooooooooo",
"   X++OoOoXooOoooOooOOoOoOoOoOoXOooOOOoOOOoOX +                 oooOOOOOOOOOOOOOOoOOOOOOOOoooooO                ooooooo+oooooooo",
" + XOoOooOooOoOOOOoOOoOOOoooOooooOooooooooOoX +                 ooOOOoOOOOOOOOOOoOOOOoOOOOOOoooo                oooooooooooooooo",
" + XoooXOoOoOOOOOOOOOOOOoOOOOoOoOoOoOoOXXoooX                   OOOOOoOOOOOoOOOOOOOOOoOOOOOooOOO                oooooooooooooooo",
"   XXXX+OoOOOOOoOOOOOOOOOOOOOOOOOoOOOOoO+XXXOX                  OOOOOoOoOOOoOOoOOOOOoOOoOOOooOoO                oooooooooooooooo",
"  XOOX+OOOoOOOooOOOOOoOOOOOoOOOOOOoOOOOOO+XOOX                  OOOOOOOOOOOOOOOOOOOOOOOOOOOOOOOO                oooooooooooooooo",
"  XOX+OOoOOOOOooOoOOOOOOOOOoOoOOOOOOOOoOOO+XoX +                OOOOOOOOOOOOOOOOOOOOOOOOOOOOOOOO                oooooooooooooooo",
"+ XoXooOoOOOOOOOOOOOOOOOOOOOOOOOOOOOOOOoOooXXX +                OOOOOoOOOOoOOOOOOOoOOOOoOOOOOOOO                oooooooooooo+ooo",
"+ .o.ooooOOOoOOOOOOOOOOOOoOOOOOOOOOOOOOooOOXOX                  OOOOOoOOOOOoOOOOOOoOOOOoOOOOOOOo                oooooooooooooooo",
"  .o.oooOoOOOOOoOOOOOOOOOOOoOOOOOOOOOOooOOo.O. +                OOOOOoOOOOOOOooOOOOOOOOoOOOOoOOo                oooo+ooooooooooo",
"  .o..oooOOOOOOoOOOOOOOOOOOoOOOOOOOOOOOooo..o. +                OOOOoOOOOOOOOoooOOOOOOOOOOOOOOOo                oooooooooooooooo",
"   .++..oOOOOOOoOOOOoOOOOOOoOOOOooOOOOOOo.++.  +                OOOOoOoOOOOOOoooOOOOOOoOOOOOOOOO                oooooooooooooooo",
"  X+OO+ooOOOOOoooOOOoOOOOOOooOOOoOOOOOOoO+OO+X                  OOOOOOOOOOOOOOOoOOOOOOOOOOOOOOOO                oooooooooooooooo",
"  XOOOOOoOOOOOoOoOOOOOOOOOOOOOOooOOOOOOOOOOOOX                  OOOOOOOOOOOOOOOOOOOOOOOOOOOOOOOO                oooooooooooooooo",
"+ XOOOOOOOOOOOOOOOOOOOOOOOOOOOOOOoOOOOOoOOOOO.                  OOooOOOOOoOOOOOOOOooOOOOOOOOOoOO                                ",
"+ X.OoooOoOOOOOOOOOOOOOOOOOOOOOOOOOOOOOoooo..X +                OOoOoOOOOOoOOOOOOOOOoOOOOOOOOOOO                                ",
"+ XX..oooOOOOOoOOOOOOOOOOOOOOOOOOoOOOOoX.o.OOX +                OOOOOOOOOoOOOOOOOOOOOOOOoOOOOOOO                                ",
"+ XOO..+oOOOOOooOOOOOOOOOOOOOOOOOooOOOoo+..OoX +                ooOOOOOOOoOOOOOOooOOOOOOOOOOOOOO                                ",
"+ XoOO+oOOOOOOooOOOOOOOOOOOOOOOOOooOOOOOO++.oX +                oOOOOoOOOOOOOOOOoOOOOOOOOOOOoOOO                                ",
"  XooXOooOOOOOOOOOOOOOOOOOOOOOOOOOOOOOOoOOO+oX +                OOOOooOOOOOoOOOOOOOOOOOOOOOoOOOO                                ",
"+ XX.ooOoOOOOOOOOOOOOOOOOOOOOOOOOOOoOOOOoOOXXo +                oOOOooOoOOOOOOoOOOOOoOOOOOOOoOoo                                ",
"  X++.ooOOOOOOOOOOOOOOOOOOOOOOOOOOOOOOOoOoX++X                  ooOOOOOOOOOOOOOOOOOOOOOOoOOOOooo                                ",
"  .OO+.OOOoOOOOOOOOOOOOOOOOOOOOOOOOOOOOOOo.OO.                  XooOOOOOOOOOOOOoOOOOOOOOoOOOOooX                                ",
"  .OOO.oOoooOOOOOOOOOOOOOOOOOOOOOOOOOoOOoo.OO. +                XooOOOOoOOOOOOOoOoOOOOOOooOOOoX+                                ",
"  .OOO.oOoOoOOOOOOOOOOOOOOOOOOOOOOOOOoOoO.+OO. +                +XoOOOOooOOOOOOooOOOOOOOooOOooXO                                ",
"+ XoOO.ooOOOoOOOOOOOOOOOOOOOOOOOOOOOOOOoo.OOoX +                OXoOOOOoooOOOOOOooOOOOOOOOoOoOXO                                ",
"+ .ooXOooOOOOOOOOOOOOOOOOOOOOOOOOOOOOOOooo.oo. +                XooOOOoOOoOOOOOoOoOOoOOOOOOOooXO                                ",
"  ..++oOOOOOOooOOOOOOOOOOOOOOOOOooOOOOOOoX++.. +                XoOOOooOoOoOOOOOOOOOoOoOOOOOOooX                                ",
"  .+OO+oOOOOOoOOOOOOOOOOOOOOOOOOoOOOOOOoO+OO+X                  ooOOOOOOOOOOOOOOOOOOOOOOOOOOOOoo                                ",
"+ .OOOoOOOOOOoOOOOOOOOOOOOOOOOOOoOOOOOOoOOOOO.                  oooOOOOOOOOOOOOOOOOOOOOOOOOOOOoo                                ",
"+ .oOOoOOoOOOOOOOOOoOOOOOoOOOOOOOOOoOOOOOOOOo. +                                                                                ",
"+ .oooOOOOOOOOoOOOOoooOOOooOoOOOOOOoOOOoOOOoo.                                                                                  ",
"+  XOoooOOOOOOOOOOOOOOOOOOoOoOOOOOOOOOOoooo..  +                                                                                ",
"   XXXXoOoOOOoOOoOOOoOOOoOOOOOOOoOOoOoOXXX.++X +                                                                                ",
"+  XXXXOOooOOooOooOooOOoooOOOoOooooooooo++OOOX +                                                                                ",
"  XXOOXXoOooooOooOooooooXoOOOoooXXXXXXooooOOoX +                                                                                ",
"  XXOOOXXXXXooooOOOOoooXXXooooXX+++oXXXXXooooX +                                                                                ",
"+ XXOooXX++XXoXXXXOOoXX+++XoXXXXOOooXX++XXooXX                                                                                  ",
"+ XOXXX++oooOXXO++XX++OOoooXo+++XX+OOOOooOXoOX                                                                                  ",
"+ .OO.ooooooo..oooO+XooOoooXXoooOOXoooOoooX.o. +                                                                                ",
"  .o...oooooo...ooo..ooooooXXXooo...oooooo.... +                                                                                ",
"+  .OO..oooo.......OOXooooo......OO..oooo....  +                                                                                ",
"+ X.OOO......++...OOO......++...OOOO......++.X +                                                                                ",
"   .ooOOO. ++OO++ oooOOO .+OO++ oooOOOO.++OO.                                                                                   ",
"                                                                                                                                ",
"   +++++++ ++++   +++  ++++  +++ ++++++ +++++                                                                                   "
};
