/* XPM */
static char *_1527a0748024b90edc8401d3eb1e8c7UQPuTk744p1p8XAB[] = {
/* columns rows colors chars-per-pixel */
"63 67 6 1 ",
"  c #1E1B29",
". c #5B6985",
"X c #808080",
"o c #8A9AB1",
"O c #BFCADA",
"+ c gray80",
/* pixels */
"X++++++++XXXXXXXX++++++++XXXXXXXX++++++++XXXXXXXX++++++++XXXXXX",
"X++++++++XXXXXXXX++++++++XXXXXXXX++++++++XXXXXXXX++++++++XXXXXX",
"+XXXXXXXX++++++++XXXXXXXX++++++++XXXXXXXX++++++++XXXXXXXX++++++",
"+XXXXXXXX++++++++XXXXXXXX++++++++XXXXXXXX++++++++XXXXXXXX++++++",
"+XXXXXXXX++++++++XXXXXXXX++++++++XXXXXXXX++++++++XXXXXXXX++++++",
"+XXXXXXXX++++++++XXXXXXXX++++++++XXXXXXXX++++++++XXXXXXXX++++++",
"+XXXXXXXX++++++++XXXXXXXX++++++++XXXXXXXX++++++++XXXXXXXX++++++",
"+XXXXXXXX++++++++XXXXXXXX++++++++XXXXXXXX++++++++XXXXXXXX++++++",
"+XXXXXXXX++++++++XXX                       ++++++XXXXXXXX++++++",
"+XXXXXXXX++++++++XXX                       ++++++XXXXXXXX++++++",
"X++++++++XXXXXXXX+++                       XXXXXX++++++++XXXXXX",
"X++++++++XXXXXXXX+++                       XXXXXX++++++++XXXXXX",
"X++++++++XXXXXXX    OOOOOOOOOOOOOOOOOOOOOOO    XX++++++++XXXXXX",
"X++++++++XXXXXXX    OOOOOOOOOOOOOOOOOOOOOOO    XX++++++++XXXXXX",
"X++++++++XXXXXXX    OOOOOOOOOOOOOOOOOOOOOOO    XX++++++++XXXXXX",
"X++++++++XXXXXXX    OOOOOOOOOOOOOOOOOOOOOOO    XX++++++++XXXXXX",
"X++++++++XXX    OOOOOOOO........OOOOOOOO...OOOO    ++++++XXXXXX",
"X++++++++XXX    OOOOOOOO........OOOOOOOO...OOOO    ++++++XXXXXX",
"+XXXXXXXX+++    OOOOOOOO........OOOOOOOO...OOOO    XXXXXX++++++",
"+XXXXXXXX+++    OOOOOOOO........OOOOOOOO...OOOO    XXXXXX++++++",
"+XXXXXXXX+++    OOOOOOOOooooooooOOOOOOOOoooOOOO    XXXXXX++++++",
"+XXXXXXXX+++    OOOOOOOOooooooooOOOOOOOOoooOOOO    XXXXXX++++++",
"+XXXXXXXX+++    OOOOOOOOooooooooOOOOOOOOoooOOOO    XXXXXX++++++",
"+XXXXXXXX+++    OOOOOOOOooooooooOOOOOOOOoooOOOO    XXXXXX++++++",
"+XXXXXXXX+++    OOOOOOOOooooooooOOOOOOOOoooOOOO    XXXXXX++++++",
"+XXXXXXXX+++    OOOOOOOOooooooooOOOOOOOOoooOOOO    XXXXXX++++++",
"X++++++++XXX    OOOOOOOOooooooooOOOOOOOOoooOOOO    ++++++XXXXXX",
"X++++++++XXX    OOOOOOOOooooooooOOOOOOOOoooOOOO    ++++++XXXXXX",
"X++++++++XXX    OOOOOOOO........OOOOOOOO...OOOO    ++++++XXXXXX",
"X++++++++XXX    OOOOOOOO........OOOOOOOO...OOOO    ++++++XXXXXX",
"X++++++++XXX    OOOOOOOO........OOOOOOOO...OOOO    ++++++XXXXXX",
"X++++++++XXX    OOOOOOOO........OOOOOOOO...OOOO    ++++++XXXXXX",
"X++++++++XXXXXXX    OOOOOOOOOOOOOOOOOOOOOOO    XX++++++++XXXXXX",
"X++++++++XXXXXXX    OOOOOOOOOOOOOOOOOOOOOOO    XX++++++++XXXXXX",
"+XXXXXXXX+++++++    OOOOOOOOOOOOOOOOOOOOOOO    ++XXXXXXXX++++++",
"+XXXXXXXX+++    OOOO    ooooOOOOooooOOOOooo    ++XXXXXXXX++++++",
"+XXXXXXXX+++    OOOO    ooooOOOOooooOOOOooo    ++XXXXXXXX++++++",
"+XXXXXXXX+++    OOOO    ooooOOOOooooOOOOooo    ++XXXXXXXX++++++",
"+XXXXXXXX+++    OOOO    ooooOOOOooooOOOOooo    ++XXXXXXXX++++++",
"+XXXXXXX        OOOOOOOO                               XX++++++",
"+XXXXXXX        OOOOOOOO                               XX++++++",
"+XXXXXXX        OOOOOOOO                               XX++++++",
"X+++++++        OOOOOOOO                               ++XXXXXX",
"X+++    OOOOOOOO    ooooooooooooOOOOoooo       oooooooo    XXXX",
"X+++    OOOOOOOO    ooooooooooooOOOOoooo       oooooooo    XXXX",
"X+++    OOOOOOOO    ooooooooooooOOOOoooo       oooooooo    XXXX",
"X+++    OOOOOOOO    ooooooooooooOOOOoooo       oooooooo    XXXX",
"X+++    OOOOOOOO    ooooooooOOOOOOOOOOOO       oooooooo    XXXX",
"X+++    OOOOOOOO    ooooooooOOOOOOOOOOOO       oooooooo    XXXX",
"X+++    OOOOOOOO    ooooooooOOOOOOOOOOOO       oooooooo    XXXX",
"+XXX    OOOOOOOO    ooooooooOOOOOOOOOOOO       oooooooo    ++++",
"+XXXXXXX            ooooOOOOOOOOOOOOoooo   ++++        XX++++++",
"+XXXXXXX            ooooOOOOOOOOOOOOoooo   ++++        XX++++++",
"+XXXXXXX            ooooOOOOOOOOOOOOoooo   ++++        XX++++++",
"+XXXXXXX            ooooOOOOOOOOOOOOoooo   ++++        XX++++++",
"+XXXXXXXX+++++++    OOOOOOOO        oooo   ++++++XXXXXXXX++++++",
"+XXXXXXXX+++++++    OOOOOOOO        oooo   ++++++XXXXXXXX++++++",
"+XXXXXXXX+++++++    OOOOOOOO        oooo   ++++++XXXXXXXX++++++",
"X++++++++XXXXXXX    OOOOOOOO        oooo   XXXXXX++++++++XXXXXX",
"X++++++++XXXXXXXX++++++++XXXXXXXX++++++++XXXXXXXX++++++++XXXXXX",
"X++++++++XXXXXXXX++++++++XXXXXXXX++++++++XXXXXXXX++++++++XXXXXX",
"X++++++++XXXXXXXX++++++++XXXXXXXX++++++++XXXXXXXX++++++++XXXXXX",
"X++++++++XXXXXXXX++++++++XXXXXXXX++++++++XXXXXXXX++++++++XXXXXX",
"X++++++++XXXXXXXX++++++++XXXXXXXX++++++++XXXXXXXX++++++++XXXXXX",
"X++++++++XXXXXXXX++++++++XXXXXXXX++++++++XXXXXXXX++++++++XXXXXX",
"X++++++++XXXXXXXX++++++++XXXXXXXX++++++++XXXXXXXX++++++++XXXXXX",
"+XXXXXXXX++++++++XXXXXXXX++++++++XXXXXXXX++++++++XXXXXXXX++++++"
};
